<?xml version="1.0" standalone="no"?>
<!DOCTYPE svg PUBLIC "-//W3C//DTD SVG 20010904//EN"
 "http://www.w3.org/TR/2001/REC-SVG-20010904/DTD/svg10.dtd">
<svg version="1.0" xmlns="http://www.w3.org/2000/svg"
 width="314.000000pt" height="314.000000pt" viewBox="0 0 314.000000 314.000000"
 preserveAspectRatio="xMidYMid meet">
<metadata>
Created by potrace 1.14, written by Peter Selinger 2001-2017
</metadata>
<g transform="translate(0.000000,314.000000) scale(0.100000,-0.100000)"
fill="#000000" stroke="none">
<path d="M1485 3050 c-126 -15 -234 -92 -287 -207 -48 -102 -54 -171 -39 -490
8 -154 10 -291 6 -304 -12 -39 -67 -118 -161 -235 -108 -134 -127 -167 -159
-277 -35 -120 -67 -197 -125 -298 -55 -96 -73 -174 -50 -228 10 -26 9 -34 -15
-75 -37 -63 -59 -76 -125 -76 -81 0 -128 -16 -149 -50 -19 -31 -19 -48 -6
-195 7 -82 5 -96 -19 -166 -14 -41 -26 -89 -26 -106 0 -54 1 -54 366 -149 73
-19 173 -50 223 -69 50 -20 110 -38 134 -41 55 -7 118 16 168 61 22 19 45 35
52 35 7 0 20 9 29 19 22 26 174 36 413 27 226 -8 241 -10 253 -46 22 -62 118
-105 216 -98 79 7 114 26 201 106 82 76 168 134 280 188 100 49 155 101 155
146 0 41 -7 51 -46 71 -45 23 -91 64 -135 120 -33 42 -39 56 -39 99 0 53 -12
84 -41 108 -17 14 -17 19 -3 85 20 88 13 240 -14 345 -29 108 -101 287 -137
336 -16 23 -59 76 -95 117 -74 86 -189 282 -225 385 -20 56 -26 102 -34 248
-6 98 -15 204 -21 234 -14 78 -73 191 -126 245 -55 54 -187 121 -259 130 -27
3 -61 8 -75 9 -14 2 -52 0 -85 -4z"/>
</g>
</svg>
